<svg xmlns="http://www.w3.org/2000/svg" width="107" height="34" fill="none" viewBox="0 0 107 34"><path fill="#1d2026" d="M13 0c6.462 0 11.822 4.716 12.83 10.894H15.414v17H26V34H0V13C0 5.82 5.82 0 13 0M106.941 25.484c0 1.661-1.148 2.839-2.809 2.839s-2.838-1.178-2.838-2.839c0-1.691 1.177-2.869 2.838-2.869s2.809 1.178 2.809 2.869M100.891 20.109c0 4.771-2.809 8.365-7.157 8.365-1.903 0-3.534-.816-4.742-2.386V34h-4.197V12.046h3.865V14.4c1.238-1.721 3.02-2.657 5.074-2.657 4.348 0 7.157 3.624 7.157 8.365m-4.319 0c0-3.02-1.721-4.65-3.775-4.65s-3.774 1.6-3.774 4.65 1.72 4.62 3.774 4.62 3.775-1.54 3.775-4.62M78.064 21.377v-9.331h4.167v16.126h-3.835v-2.114c-.876 1.42-2.657 2.416-4.71 2.416-3.232 0-5.588-1.963-5.588-6.16V12.045h4.198v9.452c0 2.265 1.117 3.261 2.808 3.261 1.51 0 2.96-1.208 2.96-3.382M58.595 28.474c-4.68 0-8.184-3.684-8.184-8.365 0-4.711 3.503-8.365 8.184-8.365s8.184 3.654 8.184 8.365c0 4.68-3.503 8.365-8.184 8.365m0-3.715c2.084 0 3.865-1.66 3.865-4.65s-1.781-4.62-3.865-4.62-3.865 1.63-3.865 4.62 1.781 4.65 3.865 4.65M42.219 28.474c-4.65 0-7.852-3.443-7.852-8.365 0-4.832 3.322-8.365 7.852-8.365 4.197 0 7.308 2.839 7.821 7.187h-4.409c-.211-2.144-1.51-3.473-3.412-3.473-2.175 0-3.564 1.782-3.564 4.65 0 2.9 1.36 4.651 3.564 4.651 1.932 0 3.17-1.268 3.412-3.472h4.41c-.484 4.439-3.504 7.187-7.822 7.187"/></svg>